<svg xmlns="http://www.w3.org/2000/svg" width="233.342" height="170.06" viewBox="0 0 233.342 170.06">
  <g id="Group_22243" data-name="Group 22243" transform="translate(-243.64 -892)">
    <path id="Path_17763" data-name="Path 17763" d="M113.566,35.71c-29.983,7.37-53.653,30.773-60.6,60.831-5.159,22.372-.632,45.431,34.111,53.818,75.119,18.134,156.255,12.151,165.975-24.117s-8.291-98.487-51.27-102.334C177.331,21.718,140.616,29.013,113.566,35.71Z" transform="translate(203.094 868.488)" fill="#e6e6e6" opacity="0.3"/>
    <g id="Group_22235" data-name="Group 22235" transform="translate(8735.29 -59.819)">
      <path id="Path_17893" data-name="Path 17893" d="M181.07,143.75l-4.1,5.14a26.92,26.92,0,0,0-5.74,19.39l.79,8,12-10.9Z" transform="translate(-8508.23 868.84)" fill="#878787" opacity="0.55"/>
      <path id="Path_17894" data-name="Path 17894" d="M209.86,143.75l4.1,5.14a26.88,26.88,0,0,1,5.74,19.39l-.78,8-12-10.9Z" transform="translate(-8508.23 868.84)" fill="#878787" opacity="0.55"/>
      <path id="Path_17895" data-name="Path 17895" d="M190,167.08s3.74,22-2.41,23.85-9-8.08-17.12-2.17,2.29,12.42-12.05,10.61-19.9,5.26-16.52,12.51H247.73s5.31-6.73-.6-11.31a11.21,11.21,0,0,0-9.1-2,3,3,0,0,1-3.5-3c.06-2.17-.31-4.63-2-6.13-2-1.83-6.25.08-9.41,2a18.92,18.92,0,0,1-12,2.7c-3.67-.44-7.43-1.66-8.45-4.68-2.17-6.39-.85-22.81-.85-22.81Z" transform="translate(-8508.23 868.84)" fill="#ffdd80" opacity="0.55"/>
      <path id="Path_17896" data-name="Path 17896" d="M195.48,98.11s-30.3,16.63-11.45,67.26h22.91C225.79,114.74,195.48,98.11,195.48,98.11Z" transform="translate(-8508.23 868.84)" fill="#c1c1c1"/>
      <path id="Path_17897" data-name="Path 17897" d="M206.94,165.37l-1.02,3.88H185.13l-1.1-4.34Z" transform="translate(-8508.23 868.84)" fill="#878787"/>
      <circle id="Ellipse_20124" data-name="Ellipse 20124" cx="7.78" cy="7.78" r="7.78" transform="translate(-8320.311 988.87)" fill="#e6e6e6"/>
    </g>
    <ellipse id="Ellipse_20107" data-name="Ellipse 20107" cx="94.702" cy="9.094" rx="94.702" ry="9.094" transform="translate(261.798 1043.871)" fill="#e6e6e6" opacity="0.45"/>
    <rect id="Rectangle_2904" data-name="Rectangle 2904" width="39.27" height="125.777" transform="translate(331.916 1050.857) rotate(180)" fill="#e6e6e6"/>
    <rect id="Rectangle_2905" data-name="Rectangle 2905" width="8.16" height="125.777" transform="translate(331.916 1050.857) rotate(180)" fill="#c9c9c9" opacity="0.57"/>
    <rect id="Rectangle_2906" data-name="Rectangle 2906" width="31.103" height="1.092" transform="translate(323.756 931.591) rotate(180)" fill="#c9c9c9"/>
    <rect id="Rectangle_2907" data-name="Rectangle 2907" width="31.103" height="1.092" transform="translate(323.756 938.185) rotate(180)" fill="#c9c9c9"/>
    <rect id="Rectangle_2908" data-name="Rectangle 2908" width="31.103" height="1.092" transform="translate(323.756 944.779) rotate(180)" fill="#c9c9c9"/>
    <rect id="Rectangle_2909" data-name="Rectangle 2909" width="31.103" height="1.092" transform="translate(323.756 951.374) rotate(180)" fill="#c9c9c9"/>
    <rect id="Rectangle_2910" data-name="Rectangle 2910" width="31.103" height="1.092" transform="translate(323.756 957.968) rotate(180)" fill="#c9c9c9"/>
    <rect id="Rectangle_2911" data-name="Rectangle 2911" width="31.103" height="1.092" transform="translate(323.756 964.562) rotate(180)" fill="#c9c9c9"/>
    <rect id="Rectangle_2912" data-name="Rectangle 2912" width="31.103" height="1.092" transform="translate(323.756 971.156) rotate(180)" fill="#c9c9c9"/>
    <rect id="Rectangle_2913" data-name="Rectangle 2913" width="31.103" height="1.092" transform="translate(323.756 977.75) rotate(180)" fill="#c9c9c9"/>
    <rect id="Rectangle_2914" data-name="Rectangle 2914" width="31.103" height="1.092" transform="translate(323.756 984.345) rotate(180)" fill="#c9c9c9"/>
    <rect id="Rectangle_2915" data-name="Rectangle 2915" width="31.103" height="1.092" transform="translate(323.756 990.939) rotate(180)" fill="#c9c9c9"/>
    <rect id="Rectangle_2916" data-name="Rectangle 2916" width="31.103" height="1.092" transform="translate(323.756 997.533) rotate(180)" fill="#c9c9c9"/>
    <rect id="Rectangle_2917" data-name="Rectangle 2917" width="31.103" height="1.092" transform="translate(323.756 1004.127) rotate(180)" fill="#c9c9c9"/>
    <rect id="Rectangle_2918" data-name="Rectangle 2918" width="31.103" height="1.092" transform="translate(323.756 1010.721) rotate(180)" fill="#c9c9c9"/>
    <rect id="Rectangle_2919" data-name="Rectangle 2919" width="31.103" height="1.092" transform="translate(323.756 1017.316) rotate(180)" fill="#c9c9c9"/>
    <rect id="Rectangle_2920" data-name="Rectangle 2920" width="31.103" height="1.092" transform="translate(323.756 1023.91) rotate(180)" fill="#c9c9c9"/>
    <rect id="Rectangle_2921" data-name="Rectangle 2921" width="31.103" height="1.092" transform="translate(323.756 1030.504) rotate(180)" fill="#c9c9c9"/>
    <rect id="Rectangle_2922" data-name="Rectangle 2922" width="31.103" height="1.092" transform="translate(323.756 1037.105) rotate(180)" fill="#c9c9c9"/>
    <rect id="Rectangle_2923" data-name="Rectangle 2923" width="31.103" height="1.092" transform="translate(323.756 1043.699) rotate(180)" fill="#c9c9c9"/>
    <rect id="Rectangle_2924" data-name="Rectangle 2924" width="22.338" height="32.277" transform="translate(281.306 1018.367)" fill="#c9c9c9"/>
    <rect id="Rectangle_2925" data-name="Rectangle 2925" width="17.832" height="9.465" transform="translate(283.559 1008.908)" fill="#c9c9c9"/>
    <rect id="Rectangle_2926" data-name="Rectangle 2926" width="22.338" height="2.487" transform="translate(281.306 1018.367)" fill="#fff" opacity="0.44"/>
    <rect id="Rectangle_2927" data-name="Rectangle 2927" width="6.89" height="3.778" transform="translate(290.729 1005.13)" fill="#c9c9c9"/>
    <rect id="Rectangle_2928" data-name="Rectangle 2928" width="27.414" height="31.583" transform="translate(328.076 958.14)" fill="#c9c9c9"/>
    <rect id="Rectangle_2929" data-name="Rectangle 2929" width="27.414" height="31.583" transform="translate(328.076 958.14)" fill="#fff" opacity="0.44"/>
    <rect id="Rectangle_2930" data-name="Rectangle 2930" width="27.414" height="31.583" transform="translate(328.076 958.14)" fill="#ccc"/>
    <rect id="Rectangle_2931" data-name="Rectangle 2931" width="38.693" height="61.099" transform="translate(328.076 989.757)" fill="#e6e6e6"/>
    <rect id="Rectangle_2932" data-name="Rectangle 2932" width="29.269" height="3.146" transform="translate(331.916 1022.474)" fill="#fff" opacity="0.34"/>
    <rect id="Rectangle_2933" data-name="Rectangle 2933" width="29.269" height="3.146" transform="translate(331.916 1028.828)" fill="#fff" opacity="0.18"/>
    <rect id="Rectangle_2934" data-name="Rectangle 2934" width="19.336" height="9.273" transform="translate(331.916 963.635)" fill="#fff" opacity="0.52"/>
    <rect id="Rectangle_2935" data-name="Rectangle 2935" width="13.044" height="2.514" transform="translate(286.031 1012.391)" fill="#fff"/>
    <rect id="Rectangle_2936" data-name="Rectangle 2936" width="29.269" height="3.146" transform="translate(331.916 995.589)" fill="#fff"/>
    <path id="Path_17764" data-name="Path 17764" d="M110.909,216.5h0a1.655,1.655,0,0,1,1.655,1.655v6.931h-3.3v-6.931A1.655,1.655,0,0,1,110.909,216.5Z" transform="translate(184.911 808.062)" fill="#fff"/>
    <path id="Path_17765" data-name="Path 17765" d="M101.155,216.47h0a1.655,1.655,0,0,1,1.655,1.655v6.9H99.5v-6.9a1.655,1.655,0,0,1,1.655-1.655Z" transform="translate(187.967 808.072)" fill="#fff"/>
    <path id="Path_17766" data-name="Path 17766" d="M110.909,237.39h0a1.655,1.655,0,0,1,1.655,1.655v6.9h-3.3v-6.9A1.655,1.655,0,0,1,110.909,237.39Z" transform="translate(184.911 801.522)" fill="#fff" opacity="0.52"/>
    <path id="Path_17767" data-name="Path 17767" d="M101.155,237.36h0a1.655,1.655,0,0,1,1.655,1.655v6.9H99.5v-6.9a1.655,1.655,0,0,1,1.655-1.655Z" transform="translate(187.967 801.531)" fill="#fff" opacity="0.52"/>
    <path id="Path_17768" data-name="Path 17768" d="M187.164,150.57c0,.316-.769,2.686,0,4.327a9.5,9.5,0,0,0,1.868,2.665s-1.649.625-1.106,1.161.982,1.546,3.641.289,3.386-2.129,3.235-3.434-3.476-6.917-3.476-6.917Z" transform="translate(160.626 829.303)" fill="#f4a28c"/>
    <path id="Path_17769" data-name="Path 17769" d="M211.669,94.25s-40.053,1.731-42.464,9.445c-3.867,12.522,11.506,31.487,11.506,31.487l6.182-2.294s-8-18.292-5.818-20.717c6.807-7.521,22.826-1.607,22.826-1.607Z" transform="translate(166.337 846.339)" fill="#0da6c9"/>
    <path id="Path_17770" data-name="Path 17770" d="M211.669,94.25s-40.053,1.731-42.464,9.445c-3.867,12.522,11.506,31.487,11.506,31.487l6.182-2.294s-8-18.292-5.818-20.717c6.807-7.521,22.826-1.607,22.826-1.607Z" transform="translate(166.337 846.339)" fill="#fff" opacity="0.46"/>
    <path id="Path_17771" data-name="Path 17771" d="M228.427,246.7s-.934,2.59-3.27,2.789-2.954,2.487-.845,3.084,7.522-2.109,7.522-2.109l-.151-3.38Z" transform="translate(149.291 798.607)" fill="#0da6c9"/>
    <path id="Path_17772" data-name="Path 17772" d="M275.431,246.7s.927,2.59,3.27,2.789,2.947,2.487.845,3.084-7.556-2.109-7.556-2.109l.151-3.38Z" transform="translate(133.959 798.607)" fill="#0da6c9"/>
    <path id="Path_17773" data-name="Path 17773" d="M229.419,93.728a80.923,80.923,0,0,1,30.272,6.471,11.677,11.677,0,0,1,5.894,15.97L249.1,149.03l-30.539-1.807a129.222,129.222,0,0,1-4.437-39.359,15,15,0,0,1,15.3-14.136Z" transform="translate(152.125 846.504)" fill="#0da6c9"/>
    <path id="Path_17774" data-name="Path 17774" d="M251.209,173.417l9.129,50.246h-4.561l-11.444-27.283a47.327,47.327,0,0,0-20.3-22.867l-3.359-1.9Z" transform="translate(150.028 822.118)" fill="#24285b"/>
    <path id="Path_17775" data-name="Path 17775" d="M220.67,171.61l4.719,52.053h6.058s-1.415-39.153,9.527-47.506Z" transform="translate(150.028 822.118)" fill="#24285b"/>
    <path id="Path_17776" data-name="Path 17776" d="M262.278,106.67s-7.8,5.014-5.344,20.435a30.91,30.91,0,0,1-7.384,25.34l10.7.639s6.869-14.315,8.7-17.351S262.278,106.67,262.278,106.67Z" transform="translate(140.985 842.451)" opacity="0.08"/>
    <path id="Path_17777" data-name="Path 17777" d="M265.77,110.016c0-6.986,8.7-10.207,13.367-5.021a28.946,28.946,0,0,1,7.439,15.963c1.855,15.338-.185,48.825-.185,48.825h-5.557s-3.75-33.466-11.931-48.825A23.482,23.482,0,0,1,265.77,110.016Z" transform="translate(135.907 843.776)" fill="#0da6c9"/>
    <path id="Path_17778" data-name="Path 17778" d="M265.77,110.016c0-6.986,8.7-10.207,13.367-5.021a28.946,28.946,0,0,1,7.439,15.963c1.855,15.338-.185,48.825-.185,48.825h-5.557s-3.75-33.466-11.931-48.825A23.482,23.482,0,0,1,265.77,110.016Z" transform="translate(135.907 843.776)" fill="#fff" opacity="0.46"/>
    <path id="Path_17779" data-name="Path 17779" d="M294.324,211.992v-2.363a3.249,3.249,0,0,0-3.249-3.249h-3.036a3.249,3.249,0,0,0-3.249,3.249v2.542" transform="translate(129.952 811.231)" fill="none" stroke="#24285b" stroke-miterlimit="10" stroke-width="2"/>
    <rect id="Rectangle_2937" data-name="Rectangle 2937" width="23.155" height="15.084" transform="translate(430.719 1037.373) rotate(180)" fill="#ffd200"/>
    <path id="Path_17780" data-name="Path 17780" d="M297.5,223.49s-8.675,7.453-23.155,5.262V231.5H297.5Z" transform="translate(133.224 805.874)" opacity="0.08"/>
    <path id="Path_17781" data-name="Path 17781" d="M292.465,200.48s1.669,5.5-.522,5.5-4.808,1.051-3.16-5.5Z" transform="translate(128.864 813.078)" fill="#f4a28c"/>
    <path id="Path_17782" data-name="Path 17782" d="M238.027,71.888A22.737,22.737,0,0,0,237.67,78a1.848,1.848,0,0,0,2.1,1.566,4.121,4.121,0,0,0,3.51-2.748l1.463-3.057a3.311,3.311,0,0,0-1.072-3.668C241.736,68.412,238.343,69.662,238.027,71.888Z" transform="translate(144.727 854.146)" fill="#f4a28c"/>
    <path id="Path_17783" data-name="Path 17783" d="M244.766,77.03l2.019,11.9-6.635.646,1.2-8.923Z" transform="translate(143.929 851.731)" fill="#f4a28c"/>
    <path id="Path_17784" data-name="Path 17784" d="M237.128,76.41l-1.2,1.305a.591.591,0,0,0,.268.955l1.374.419Z" transform="translate(145.295 851.925)" fill="#f4a28c"/>
    <path id="Path_17785" data-name="Path 17785" d="M241.518,83.4A5.583,5.583,0,0,0,244,82.07a4.863,4.863,0,0,1-2.858,3.95Z" transform="translate(143.619 850.153)" fill="#ce8172" opacity="0.31"/>
    <path id="Path_17786" data-name="Path 17786" d="M242.225,73.464a1.374,1.374,0,0,1-1.374,1.106,5.3,5.3,0,0,0-3.84,1.175c-1.848,1.745.57,4.492,2.871,3.434s5.083-5.626,5.083-5.626,1.786-3.737.859-5.777-6.814-4.279-8.579-.227c-1.133,2.59,1.374,3.386,3.338,3.627a1.93,1.93,0,0,1,1.655,2.253Z" transform="translate(145.116 855.407)" fill="#24285b"/>
    <path id="Path_17787" data-name="Path 17787" d="M243.07,76.24s.179-1.408,1.223-1.181.8,2.253-.687,2.294Z" transform="translate(143.015 852.356)" fill="#f4a28c"/>
    <path id="Path_17788" data-name="Path 17788" d="M234.108,95.6s-6.23,31.329,1.978,46.592c0,0,3.572-33.376,13.91-46.709A23.215,23.215,0,0,0,234.108,95.6Z" transform="translate(146.529 846.38)" fill="#fff"/>
    <path id="Path_17789" data-name="Path 17789" d="M231.267,96.28l-8.5,17.028,3.929,9.246-2.885,8.078,9.417,12.24S225.312,133.757,231.267,96.28Z" transform="translate(149.371 845.704)" fill="#fff" opacity="0.27"/>
    <path id="Path_17790" data-name="Path 17790" d="M240.253,94.508c.144-.907.721-.687,1.628-.811.8-.124,1.923-1,2.576-.062,1.257,1.8-1.7,4.534-1.7,4.534l-2.39-.3a13.29,13.29,0,0,1-.11-3.366Z" transform="translate(143.915 846.665)" fill="#24285b"/>
    <path id="Path_17791" data-name="Path 17791" d="M237.839,100l2.39.3s-2.061,18.546-1.855,29.681l-2.212,14.061a34.776,34.776,0,0,1-4.018-16.431C232.158,127.606,234.548,110.3,237.839,100Z" transform="translate(146.439 844.539)" fill="#24285b"/>
    <path id="Path_17792" data-name="Path 17792" d="M235.14,95.224l2.651,2.438,2.748-3.1,2.061,3.331,8.4-2.748S241.913,90.058,235.14,95.224Z" transform="translate(145.498 846.76)" fill="#0da6c9"/>
    <path id="Path_17793" data-name="Path 17793" d="M235.14,95.224l2.651,2.438,2.748-3.1,2.061,3.331,8.4-2.748S241.913,90.058,235.14,95.224Z" transform="translate(145.498 846.76)" fill="#fff" opacity="0.55"/>
    <path id="Path_17794" data-name="Path 17794" d="M251.923,96.15l-1.6,23.712-6.642,2.926,2.7,8.119L238,142.831S241.757,109.29,251.923,96.15Z" transform="translate(144.602 845.745)" fill="#fff" opacity="0.27"/>
    <g id="Group_22234" data-name="Group 22234" transform="translate(-8 -40)">
      <g id="Group_22233" data-name="Group 22233" transform="translate(8543 53.897)">
        <rect id="Rectangle_2990" data-name="Rectangle 2990" width="65.6" height="45.49" transform="translate(-8291.36 926)" fill="#f4f4f4"/>
        <rect id="Rectangle_2991" data-name="Rectangle 2991" width="7.38" height="9.44" transform="translate(-8275.841 952.24)" fill="#c1c1c1"/>
        <rect id="Rectangle_2992" data-name="Rectangle 2992" width="7.38" height="16.7" transform="translate(-8262.051 944.98)" fill="#c1c1c1"/>
        <rect id="Rectangle_2993" data-name="Rectangle 2993" width="7.38" height="24.11" transform="translate(-8248.521 937.57)" fill="#c1c1c1"/>
      </g>
    </g>
    <rect id="Rectangle_2988" data-name="Rectangle 2988" width="23.65" height="19.73" transform="translate(275.449 1019.16) rotate(180)" fill="#24285b"/>
    <path id="Path_17876" data-name="Path 17876" d="M251.22,144.78l-5.64-10.06-3.95,7.45-4.78-6.32-4.79,8.93Z" transform="translate(21.77 871.32)" fill="#fff" opacity="0.62"/>
    <circle id="Ellipse_20123" data-name="Ellipse 20123" cx="1.88" cy="1.88" r="1.88" transform="translate(260.649 1003.03)" fill="#fff"/>
  </g>
</svg>
