<svg xmlns="http://www.w3.org/2000/svg" width="208.913" height="125.403" viewBox="0 0 208.913 125.403">
  <g id="Group_22527" data-name="Group 22527" transform="translate(-1117.543 -929.597)">
    <g id="Science_discovery_Two_Color" data-name="Science discovery_Two Color" transform="translate(1060.631 865.487)">
      <path id="Path_17795" data-name="Path 17795" d="M98.069,77.4c-21.521,7.957-37.479,28.142-40.626,52.562-2.65,20.565,3.65,43.3,40.984,49.78,72.572,12.6,140.537,16.192,157.889-17.813S268.333,69.695,231.5,65.928C202.251,62.927,140.082,61.84,98.069,77.4Z" fill="#e6e6e6" opacity="0.3"/>
      <path id="Path_17796" data-name="Path 17796" d="M138.714,120.173a4.673,4.673,0,0,0,.781-.044c3.322-.073,6.534,1.1,9.629,2.307a22.806,22.806,0,0,1,5.9,3.037c4.709,3.716,3.913,11.965,7.242,17.068,2.92,4.541,7.381,6.921,12.717,4.891,16.418-6.234,30.865-20.572,30.865-20.572l4.6,4s-36.6,52.562-65.921,24.7a50.671,50.671,0,0,1-12.41-18.126c-2-5.11-2.066-13.265,3.65-16.426a7.432,7.432,0,0,1,2.949-.84Z" transform="translate(-19.97 -15.123)" fill="#0da6c9"/>
      <path id="Path_17797" data-name="Path 17797" d="M138.714,120.173a4.673,4.673,0,0,0,.781-.044c3.322-.073,6.534,1.1,9.629,2.307a22.806,22.806,0,0,1,5.9,3.037c4.709,3.716,3.913,11.965,7.242,17.068,2.92,4.541,7.381,6.921,12.717,4.891,16.418-6.234,30.865-20.572,30.865-20.572l4.6,4s-36.6,52.562-65.921,24.7a50.671,50.671,0,0,1-12.41-18.126c-2-5.11-2.066-13.265,3.65-16.426a7.432,7.432,0,0,1,2.949-.84Z" transform="translate(-19.97 -15.123)" fill="#fff" opacity="0.46"/>
      <path id="Path_17798" data-name="Path 17798" d="M145.884,81.1s11.286,16.557-3.139,15.418-7.694-16.4-7.694-16.4Z" transform="translate(-20.672 -4.32)" fill="#ffd200"/>
      <path id="Path_17799" data-name="Path 17799" d="M145.884,81.1s11.286,16.557-3.139,15.418-7.694-16.4-7.694-16.4Z" transform="translate(-20.672 -4.32)" fill="#24285b"/>
      <path id="Path_17800" data-name="Path 17800" d="M144.846,78.779s1.161,5.563.657,9.41a2.854,2.854,0,0,1-3.219,2.453,6.32,6.32,0,0,1-5.453-4.132l-2.27-4.723a5.11,5.11,0,0,1,1.591-5.68C139.065,73.442,144.292,75.355,144.846,78.779Z" transform="translate(-20.883 -2.901)" fill="#f4a28c"/>
      <path id="Path_17801" data-name="Path 17801" d="M134.965,85.52l-.745,18.6,10.286-.321-3.592-13.411Z" transform="translate(-20.871 -5.78)" fill="#f4a28c"/>
      <path id="Path_17802" data-name="Path 17802" d="M140.272,87.126s-.3-2.19-1.913-1.8-1.2,3.5,1.051,3.526Z" transform="translate(-21.726 -5.715)" fill="#f4a28c"/>
      <path id="Path_17803" data-name="Path 17803" d="M149.256,85.08l1.818,1.986a.905.905,0,0,1-.394,1.46l-2.11.664Z" transform="translate(-24.745 -5.661)" fill="#f4a28c"/>
      <path id="Path_17804" data-name="Path 17804" d="M143.331,95.584A6.76,6.76,0,0,1,139.79,94s.548,3.365,4.658,6.256Z" transform="translate(-22.375 -8.07)" fill="#ce8172" opacity="0.31"/>
      <path id="Path_17805" data-name="Path 17805" d="M161.432,158.322l-6.205,16.1-4.139,10.746H118.58s-11.045-20.63-11.14-40.94c-.058-13.14,4.468-26.179,19.55-33.384l10.279-.329S182.618,135.195,161.432,158.322Z" transform="translate(-13.641 -12.53)" fill="#0da6c9"/>
      <path id="Path_17806" data-name="Path 17806" d="M155.227,180.145l-4.139,10.746H118.58s-11.045-20.63-11.14-40.94l26.69-18.331s12.892,10.695.657,24.733,8.264,11.819,13.411,1.723Z" transform="translate(-13.641 -18.226)" opacity="0.08"/>
      <path id="Path_17807" data-name="Path 17807" d="M234.13,127.418s3.716-6.483,5.767-6.943-1.1,3.351-.672,3.351c.548,0,4.636-2.38,5.11-2,3.278,2.46-6.052,9.1-6.052,9.1Z" transform="translate(-47.845 -15.207)" fill="#f4a28c"/>
      <path id="Path_17808" data-name="Path 17808" d="M112.68,228.881l6.264-18.951,33.559,2.1,1.628,16.849Z" transform="translate(-15.056 -39.368)" fill="#24285b"/>
      <path id="Path_17809" data-name="Path 17809" d="M141.872,69.879a6.57,6.57,0,0,1,2.584,5.052c0,1.723-.73,3.526-3.716,3.855-5.95.657-7.957.657-7.957.657s6.607,16.258-5.052,15.111-7.227-11-2.139-19.871C130.184,66.689,136.229,65.368,141.872,69.879Z" transform="translate(-17.128 -0.864)" fill="#24285b"/>
      <path id="Path_17810" data-name="Path 17810" d="M159.006,149.96l-5.636,30.873,22.134,4.2,6.015-31.873Z" transform="translate(-26.041 -23.177)" fill="#e6e6e6"/>
      <path id="Path_17811" data-name="Path 17811" d="M149.2,168.975s4.628-6.161,7.454-5.753,5.453.591,5.322,3.833-.891,6.191-2.416,5.891-6.154-.81-8.549,2.19Z" transform="translate(-24.916 -26.753)" fill="#f4a28c"/>
      <path id="Path_17812" data-name="Path 17812" d="M127.948,133.566c5.548-8.388-2.8-19.09-12.359-15.944-5,1.643-10.286,4.22-16.652,12.228-29.237,36.808-19.63,65.68,36.932,32.428l-3.584-9.235s-37.75,19.47-34.311,6.512C100.4,150.488,119.9,145.713,127.948,133.566Z" transform="translate(-7 -14.295)" fill="#0da6c9"/>
      <path id="Path_17813" data-name="Path 17813" d="M127.948,133.566c5.548-8.388-2.8-19.09-12.359-15.944-5,1.643-10.286,4.22-16.652,12.228-29.237,36.808-19.63,65.68,36.932,32.428l-3.584-9.235s-37.75,19.47-34.311,6.512C100.4,150.488,119.9,145.713,127.948,133.566Z" transform="translate(-7 -14.295)" fill="#fff" opacity="0.46"/>
      <rect id="Rectangle_2938" data-name="Rectangle 2938" width="8.14" height="3.256" transform="translate(139.977 126.031) rotate(10.97)" fill="#24285b"/>
      <circle id="Ellipse_20108" data-name="Ellipse 20108" cx="5.22" cy="5.22" r="5.22" transform="translate(186.818 91.559)" fill="#ffd200"/>
      <circle id="Ellipse_20109" data-name="Ellipse 20109" cx="2.701" cy="2.701" r="2.701" transform="translate(168.663 87.113)" fill="#ffd200"/>
      <circle id="Ellipse_20110" data-name="Ellipse 20110" cx="2.701" cy="2.701" r="2.701" transform="translate(178.197 68.132)" fill="#ffd200"/>
      <circle id="Ellipse_20111" data-name="Ellipse 20111" cx="2.701" cy="2.701" r="2.701" transform="translate(192.863 81.324)" fill="#ffd200"/>
      <circle id="Ellipse_20112" data-name="Ellipse 20112" cx="3.168" cy="3.168" r="3.168" transform="translate(211.157 85.04)" fill="#ffd200"/>
      <circle id="Ellipse_20113" data-name="Ellipse 20113" cx="2.606" cy="2.606" r="2.606" transform="translate(188.986 73.535)" fill="#ffd200"/>
      <rect id="Rectangle_2939" data-name="Rectangle 2939" width="0.73" height="21.287" transform="matrix(0.352, -0.936, 0.936, 0.352, 171.972, 90.151)" fill="#ffd200"/>
      <rect id="Rectangle_2940" data-name="Rectangle 2940" width="24.412" height="0.73" transform="translate(171.158 89.497) rotate(-34.05)" fill="#ffd200"/>
      <rect id="Rectangle_2941" data-name="Rectangle 2941" width="21.258" height="0.73" transform="translate(194.086 95.512) rotate(-18.74)" fill="#ffd200"/>
      <rect id="Rectangle_2942" data-name="Rectangle 2942" width="0.73" height="12.651" transform="matrix(0.474, -0.881, 0.881, 0.474, 180.739, 70.481)" fill="#ffd200"/>
      <rect id="Rectangle_2943" data-name="Rectangle 2943" width="0.73" height="19.63" transform="translate(195.505 84.387) rotate(-80.95)" fill="#ffd200"/>
      <rect id="Rectangle_2944" data-name="Rectangle 2944" width="71.44" height="4.468" transform="translate(154.157 166.102)" fill="#e6e6e6"/>
      <rect id="Rectangle_2945" data-name="Rectangle 2945" width="71.44" height="4.468" transform="translate(154.157 166.102)" opacity="0.08"/>
      <rect id="Rectangle_2946" data-name="Rectangle 2946" width="63.549" height="18.951" transform="translate(157.501 170.562)" fill="#e6e6e6"/>
      <path id="Path_17814" data-name="Path 17814" d="M236.953,182.568l-4.563,13.717h13.14l-4.577-13.717v-4.833h-.219a.876.876,0,0,0,.869-.876h0a.869.869,0,0,0-.876-.869h-3.555a.869.869,0,0,0-.869.869h0a.876.876,0,0,0,.869.876h-.219Z" transform="translate(-47.375 -30.205)" fill="#e6e6e6"/>
      <path id="Path_17815" data-name="Path 17815" d="M238.038,188.17h3.015l3.446,10.352h-9.9Z" transform="translate(-47.972 -33.493)" opacity="0.08"/>
      <path id="Path_17816" data-name="Path 17816" d="M216.533,182.568,212,196.307h13.14l-4.606-13.739v-4.833h-.219a.876.876,0,0,0,.869-.876h0a.869.869,0,0,0-.869-.869H216.76a.869.869,0,0,0-.876.869h0a.876.876,0,0,0,.869.876h-.219Z" transform="translate(-41.87 -30.205)" fill="#e6e6e6"/>
      <path id="Path_17817" data-name="Path 17817" d="M217.616,188.17h3.008l3.446,10.352h-9.9Z" transform="translate(-42.456 -33.493)" opacity="0.08"/>
      <path id="Path_17818" data-name="Path 17818" d="M264.594,169.435V155.419h0a1.329,1.329,0,1,0,0-2.65h-5.11a1.329,1.329,0,0,0,0,2.65h.036v14.016a8.826,8.826,0,1,0,5.052,0Z" transform="translate(-52.998 -23.935)" fill="#e6e6e6"/>
      <path id="Path_17819" data-name="Path 17819" d="M255.752,183.75a7.176,7.176,0,0,0-.372,2.285,7.3,7.3,0,0,0,14.542,0,7.177,7.177,0,0,0-.372-2.285Z" transform="translate(-53.582 -32.3)" opacity="0.08"/>
      <rect id="Rectangle_2947" data-name="Rectangle 2947" width="10.717" height="4.446" transform="translate(157.501 161.656)" fill="#e6e6e6"/>
      <rect id="Rectangle_2948" data-name="Rectangle 2948" width="19.506" height="1.117" rx="0.558" transform="translate(199.316 157.531)" fill="#ccc"/>
      <rect id="Rectangle_2949" data-name="Rectangle 2949" width="1.314" height="7.446" transform="translate(200.477 158.648)" fill="#ccc"/>
      <rect id="Rectangle_2950" data-name="Rectangle 2950" width="1.314" height="7.446" transform="translate(216.34 158.648)" fill="#ccc"/>
    </g>
    <g id="Group_22232" data-name="Group 22232" transform="translate(9840.799 -252.047)">
      <path id="Path_17829" data-name="Path 17829" d="M259.794,176.648H246.163a16.61,16.61,0,0,0-1.828-1.7c-8.083-6.452-4.181-10.263-6.635-20.141-2.978-11.981-11.182-1.9-18.159-13.7a16.32,16.32,0,0,1-.563-14.824c1.107-2.512,1.261-2.68,4.095-3.662a6.077,6.077,0,0,1,2.646-.337q-.635,2.67-1.265,5.336a25.889,25.889,0,0,0-.933,6.226,8.36,8.36,0,0,0,2.151,5.774,9.64,9.64,0,0,0,5.88,2.406,7.328,7.328,0,0,0,3.96-.481,9.676,9.676,0,0,0,4.812-6.164,17.066,17.066,0,0,0,.433-6.5,6.967,6.967,0,0,0-3.055-5.524,11.865,11.865,0,0,0-8.04-1.819,4.059,4.059,0,0,1,3.233-3.046,9.979,9.979,0,0,1,5.731.784c.7.279,5.894,2.237,5.966,2.8l1.184,9.45a2.468,2.468,0,0,1-.7,2.353q-3.031,3.941-6.038,7.91l5.158,11.7Z" transform="translate(-8791.17 1116.878)" opacity="0.12"/>
      <path id="Path_17830" data-name="Path 17830" d="M227.169,149.564l.4-.12v-.573c0-.067-.1-.183-.12-.173-.245.1-.366-.072-.337-.231s.26-.245.414-.366h.173l-.063-.3c.419-.395.582-.688.481-.847-.241-.342-.77-.549-1.006-.4-.366.241-.366.428-.1.929l-1.044,1.443a.481.481,0,0,0-.255.12c-.039.053.072.221.115.342l.159.438,1.925.3Z" transform="translate(-8795.439 1102.265)" fill="#0da6c9"/>
      <path id="Path_17831" data-name="Path 17831" d="M231.533,150.751v-.731a5.935,5.935,0,0,1-.481-.481c-.25-.289-.515-.087-.731,0s-.188.3.038.433c.034,0,.048.1.048.154,0,.178-.048.481.034.515a4.768,4.768,0,0,0,1.006.37c.063,0,.164-.125.245-.192Z" transform="translate(-8797.759 1100.77)" fill="#0da6c9"/>
      <path id="Path_17832" data-name="Path 17832" d="M276.578,182.588a1.164,1.164,0,0,0-1.467-.481c-.582.294-1.14.616-1.78.962l.881.1c.192-.226.313-.481.481-.558a3.2,3.2,0,0,1,1.1-.366C276.058,182.212,276.284,182.443,276.578,182.588Z" transform="translate(-8820.15 1083.844)" fill="#0da6c9"/>
      <path id="Path_17833" data-name="Path 17833" d="M271.549,184.771l-.736.063.37-.419c-.7-.188-1.468.082-1.443.515C270.346,184.877,270.981,185.175,271.549,184.771Z" transform="translate(-8818.287 1082.628)" fill="#0da6c9"/>
      <path id="Path_17834" data-name="Path 17834" d="M277.9,146.342c.26,0,.481.1.582,0,.26-.221.428-.039.654.034a2.7,2.7,0,0,0,.736,0c-.481-.784-.63-.832-1.251-.481l-.12.072Z" transform="translate(-8822.521 1102.691)" fill="#0da6c9"/>
      <rect id="Rectangle_2978" data-name="Rectangle 2978" width="4.282" height="12.472" transform="matrix(-0.92, 0.392, -0.392, -0.92, -8545.203, 1269.245)" fill="#ffd200"/>
      <rect id="Rectangle_2979" data-name="Rectangle 2979" width="4.282" height="12.472" transform="matrix(-0.92, 0.392, -0.392, -0.92, -8545.203, 1269.245)" opacity="0.08"/>
      <rect id="Rectangle_2980" data-name="Rectangle 2980" width="6.592" height="16.022" transform="matrix(-0.92, 0.392, -0.392, -0.92, -8539.271, 1280.37)" fill="#24285b"/>
      <path id="Path_17835" data-name="Path 17835" d="M225.243,133.9a14.055,14.055,0,1,0,7.415-18.438,14.055,14.055,0,0,0-7.415,18.438Zm3.8-1.621a5.321,5.321,0,1,0,0-.024Z" transform="translate(-8794.614 1118.96)" fill="#ffd200"/>
      <path id="Path_17836" data-name="Path 17836" d="M315.609,233.889,302.353,217.13l-6.13,3.763-4,2.459,4.181,10.537Z" transform="translate(-8829.951 1065.623)" fill="#0da6c9"/>
      <path id="Path_17837" data-name="Path 17837" d="M286.274,193.979s-3.849-22.638-12.443-23.038-3.334,13.472-7.54,12.991-4.672,9.45,11.177,15.435Z" transform="translate(-8815.2 1089.592)" fill="#f4a28c"/>
      <path id="Path_17838" data-name="Path 17838" d="M303.3,237.991c-2.694-4.922-5.355-9.8-7.073-12.991l-4,2.459L296.4,238Z" transform="translate(-8829.951 1061.539)" opacity="0.12"/>
    </g>
  </g>
</svg>
