<svg xmlns="http://www.w3.org/2000/svg" width="153.56" height="126.254" viewBox="0 0 153.56 126.254">
  <g id="New_campaign_Two_Color" data-name="New campaign_Two Color" transform="translate(-71.425 -44.29)">
    <path id="Path_5003" data-name="Path 5003" d="M101.675,75.677c-15.813,6.145-27.518,21.737-29.859,40.566-1.953,15.879,2.705,33.442,30.121,38.428,53.345,9.728,103.311,12.5,116.06-13.735s8.832-71.213-18.238-74.127C178.232,64.5,132.561,63.68,101.675,75.677Z" transform="translate(0 -8.51)" fill="#e6e6e6" opacity="0.3"/>
    <path id="Path_5004" data-name="Path 5004" d="M150.734,99.8s-21.259,5.924-15.156,24.2l12.541-1Z" transform="translate(-25.399 -22.361)" fill="#18d7da"/>
    <path id="Path_5005" data-name="Path 5005" d="M150.734,99.8s-21.259,5.924-15.156,24.2l12.541-1Z" transform="translate(-25.399 -22.361)" fill="#fff" opacity="0.44"/>
    <path id="Path_5006" data-name="Path 5006" d="M174.331,91.673l-9.423,1.648s-34.039,3.7-19.265,31.31S197,136.844,197,136.844,228.56,88.1,174.331,91.673Z" transform="translate(-28.4 -19.012)" fill="#18d7da"/>
    <rect id="Rectangle_2524" data-name="Rectangle 2524" width="120.784" height="68.908" rx="11" transform="translate(87.838 101.636)" fill="#e6e6e6"/>
    <path id="Path_5007" data-name="Path 5007" d="M250.307,132.316s-3.75,5.154-7.6,3.643-9.973-17.808-10.361-28.712a20.848,20.848,0,0,1,4.694-.478C238.967,106.906,250.307,132.316,250.307,132.316Z" transform="translate(-64.825 -25.168)" opacity="0.08"/>
    <path id="Path_5008" data-name="Path 5008" d="M231.765,86.072a11.943,11.943,0,0,0-1.069-3.977,3.655,3.655,0,0,0-1.254-1.529c-1.833-1.164-4.777,0-5.673,1.869a4.18,4.18,0,0,0-.191,2.86,12.135,12.135,0,0,0,2.108,3.828,19.618,19.618,0,0,0,1.893,2.484.281.281,0,0,0,.179.107.311.311,0,0,0,.179-.084l4-3.189C231.9,87.666,231.854,86.866,231.765,86.072Z" transform="translate(-61.224 -14.425)" fill="#f4a28c"/>
    <path id="Path_5009" data-name="Path 5009" d="M231.454,89.09s27.124,28.581,19.826,35.866C239.4,136.81,227.22,92.745,227.22,92.745Z" transform="translate(-62.759 -18.047)" fill="#f4a28c"/>
    <path id="Path_5010" data-name="Path 5010" d="M136.32,138.516s7.065-5.01,9.949-1.314S142.74,146.417,136.32,138.516Z" transform="translate(-26.141 -36.88)" fill="#f4a28c"/>
    <path id="Path_5011" data-name="Path 5011" d="M185.228,65.42,183.49,82.84,194.2,88.214l-3.667-17.891Z" transform="translate(-45.143 -8.512)" fill="#f4a28c"/>
    <path id="Path_5012" data-name="Path 5012" d="M194.255,77.148A6.348,6.348,0,0,1,191,75.47s.328,3.189,4.025,6.139Z" transform="translate(-48.168 -12.56)" fill="#ce8172" opacity="0.31"/>
    <path id="Path_5013" data-name="Path 5013" d="M192.629,60.053a33.253,33.253,0,0,1,1.3,8.784,2.687,2.687,0,0,1-2.843,2.532,5.932,5.932,0,0,1-5.41-3.476l-2.472-4.27a4.794,4.794,0,0,1,1.081-5.44C186.818,55.473,191.87,56.9,192.629,60.053Z" transform="translate(-44.858 -5.02)" fill="#f4a28c"/>
    <path id="Path_5014" data-name="Path 5014" d="M200.334,67.78l1.857,1.732a.854.854,0,0,1-.263,1.421L200,71.7Z" transform="translate(-51.794 -9.462)" fill="#f4a28c"/>
    <path id="Path_5015" data-name="Path 5015" d="M180.717,65.457l-2.407-6.844s-4.091-.37-3.087-3.105,2.759-1.117,2.58-4.18,2.227-3.84,4.109-2.281.878-.746,3.028-1.248,2.807.43,2.986,2.078,3.183-.364,4.18,1.66,1.254,4.049-4.132,4.819S186.8,61.294,180.717,65.457Z" transform="translate(-41.749 -1.359)" fill="#ffd200"/>
    <path id="Path_5016" data-name="Path 5016" d="M189.583,70.548s-.442-2.007-1.923-1.553-.872,3.362,1.242,3.225Z" transform="translate(-46.494 -9.925)" fill="#f4a28c"/>
    <path id="Path_5017" data-name="Path 5017" d="M170.86,170.16h3.255l4.246,6.24v-6.24h3.284v11.251H178.36l-4.222-6.187v6.187H170.86Z" transform="translate(-40.055 -50.704)" fill="#b3b3b3"/>
    <path id="Path_5018" data-name="Path 5018" d="M192.78,170.16h9.34v2.389h-5.846v1.792H201.7v2.3h-5.422v2.221h6.014v2.55H192.78Z" transform="translate(-48.885 -50.704)" fill="#b3b3b3"/>
    <path id="Path_5019" data-name="Path 5019" d="M209.9,170.16h3.308l1.194,6.312,1.744-6.312h3.3l1.75,6.306,1.194-6.306h3.29l-2.49,11.251h-3.416l-1.977-7.094-1.971,7.094h-3.416Z" transform="translate(-55.782 -50.704)" fill="#b3b3b3"/>
    <path id="Path_5020" data-name="Path 5020" d="M133.031,208.375l3.058.92a5.709,5.709,0,0,1-.973,2.15,4.18,4.18,0,0,1-1.642,1.3,6.1,6.1,0,0,1-2.49.442,7.166,7.166,0,0,1-2.986-.537,4.736,4.736,0,0,1-2.012-1.881,6.33,6.33,0,0,1-.848-3.44,5.859,5.859,0,0,1,1.487-4.3,6.772,6.772,0,0,1,7.56-.645,5.088,5.088,0,0,1,1.792,2.645l-3.075.687a2.567,2.567,0,0,0-.34-.752,2.013,2.013,0,0,0-.717-.6,2.2,2.2,0,0,0-2.759.735,4.061,4.061,0,0,0-.478,2.221,4.233,4.233,0,0,0,.567,2.568,2.245,2.245,0,0,0,3.111.137A3.452,3.452,0,0,0,133.031,208.375Z" transform="translate(-21.634 -63.336)" fill="#b3b3b3"/>
    <path id="Path_5021" data-name="Path 5021" d="M152.462,211.227H148.5l-.549,1.857H144.37L148.6,201.81h3.8l4.282,11.275h-3.649Zm-.723-2.442-1.248-4.049-1.23,4.049Z" transform="translate(-29.384 -63.453)" fill="#b3b3b3"/>
    <path id="Path_5022" data-name="Path 5022" d="M166.76,201.81h4.58l1.792,6.862,1.756-6.862h4.556v11.275h-2.854v-8.593l-2.2,8.593h-2.586l-2.192-8.593v8.593H166.76Z" transform="translate(-38.404 -63.453)" fill="#b3b3b3"/>
    <path id="Path_5023" data-name="Path 5023" d="M191.69,201.8h5.793a3.983,3.983,0,0,1,2.837.9,3.38,3.38,0,0,1,.938,2.562,3.493,3.493,0,0,1-1.021,2.669,4.467,4.467,0,0,1-3.135.961h-1.911v4.18h-3.5Zm3.5,4.807h.866a2.192,2.192,0,0,0,1.415-.346,1.123,1.123,0,0,0,.412-.9,1.236,1.236,0,0,0-.358-.9,1.839,1.839,0,0,0-1.332-.37H195.2Z" transform="translate(-48.446 -63.446)" fill="#b3b3b3"/>
    <path id="Path_5024" data-name="Path 5024" d="M214.676,211.227h-3.953l-.549,1.857H206.59l4.24-11.275h3.8l4.24,11.275h-3.649Zm-.723-2.442-1.242-4.049-1.23,4.049Z" transform="translate(-54.448 -63.453)" fill="#b3b3b3"/>
    <path id="Path_5025" data-name="Path 5025" d="M229.27,201.81h3.493v11.275H229.27Z" transform="translate(-63.584 -63.453)" fill="#b3b3b3"/>
    <path id="Path_5026" data-name="Path 5026" d="M244.678,208.852V206.5h5.375v4.777a11.16,11.16,0,0,1-2.735,1.433,9.351,9.351,0,0,1-2.819.382,6.892,6.892,0,0,1-3.273-.687,4.682,4.682,0,0,1-1.959-2.036,6.688,6.688,0,0,1-.7-3.111,6.468,6.468,0,0,1,.764-3.207,4.9,4.9,0,0,1,2.227-2.072,7.255,7.255,0,0,1,3.087-.549,8.641,8.641,0,0,1,2.795.34,3.583,3.583,0,0,1,1.535,1.051,4.557,4.557,0,0,1,.92,1.792l-3.356.6a1.839,1.839,0,0,0-.7-.973,2.2,2.2,0,0,0-1.266-.34,2.281,2.281,0,0,0-1.827.794,3.84,3.84,0,0,0-.681,2.52,4,4,0,0,0,.687,2.616,2.43,2.43,0,0,0,1.923.782,3.583,3.583,0,0,0,1.111-.167,5.918,5.918,0,0,0,1.194-.6v-1.057Z" transform="translate(-67.329 -63.299)" fill="#b3b3b3"/>
    <path id="Path_5027" data-name="Path 5027" d="M261.31,201.81h3.255l4.246,6.24v-6.24h3.284v11.275H268.81l-4.222-6.187v6.187H261.31Z" transform="translate(-76.491 -63.453)" fill="#b3b3b3"/>
    <path id="Path_5028" data-name="Path 5028" d="M241.553,64.474l-31.525,1.26-1.678-5.846,27.428-15.6Z" transform="translate(-55.157 0)" fill="#24285b"/>
    <rect id="Rectangle_2525" data-name="Rectangle 2525" width="3.165" height="11.585" transform="matrix(0.876, -0.482, 0.482, 0.876, 160.46, 64.409)" fill="#24285b"/>
    <path id="Path_5029" data-name="Path 5029" d="M225.5,82.993a.914.914,0,0,1,.711.191,1.063,1.063,0,0,1,.042,1.29c-.233.4-.6.729-.8,1.147a2.06,2.06,0,0,1,.549,1.792c-.084.436-.43.9-.866.836a1.009,1.009,0,0,1-.543-.346,3.729,3.729,0,0,1-1.123-2.986A3.187,3.187,0,0,1,225.5,82.993Z" transform="translate(-61.228 -15.586)" fill="#f4a28c"/>
  </g>
</svg>
