<svg xmlns="http://www.w3.org/2000/svg" width="212" height="147.515" viewBox="0 0 212 147.515">
  <g id="Group_22526" data-name="Group 22526" transform="translate(-695 -907.485)">
    <g id="Brainstorming_session__Two_Color_1_" data-name="Brainstorming session _Two Color (1)" transform="translate(650.973 864.019)">
      <path id="Path_17820" data-name="Path 17820" d="M107.012,49.555c-20.68,6.473-55.679,17.129-61.4,44.753-4.279,20.68-2.3,74.691,36.695,87.887,52.452,17.766,142.915,9.111,162.481-30.733,12.566-25.575,15.924-77.162-22.55-92.595C196.173,48.412,151.426,35.694,107.012,49.555Z" transform="translate(0 0)" fill="#e6e6e6" opacity="0.3"/>
      <rect id="Rectangle_2951" data-name="Rectangle 2951" width="3.725" height="30.699" transform="translate(144.579 78.959)" fill="#e6e6e6"/>
      <rect id="Rectangle_2952" data-name="Rectangle 2952" width="27.348" height="3.725" transform="translate(199.715 98.161) rotate(-63.56)" fill="#e6e6e6"/>
      <rect id="Rectangle_2953" data-name="Rectangle 2953" width="3.725" height="39.969" transform="translate(157.148 138.001) rotate(-50.6)" fill="#e6e6e6"/>
      <path id="Path_17821" data-name="Path 17821" d="M256.311,206.112a1.655,1.655,0,0,0,.076-1.689l-3.33,1.662c-.859-1.717.692-2.9,4.376-5.767,2.153-1.662,5.186-3.9,9-6.66,6.5-4.687,13.155-9.3,13.217-9.347l2.126,3.06C271.972,194.183,257.585,204.5,256.311,206.112Z" transform="translate(-64.237 -43.331)" fill="#e6e6e6"/>
      <path id="Path_17822" data-name="Path 17822" d="M213.419,148.924l-1.309-3.489,39.339-14.816,45.7-2.3.194,3.725-45.127,2.271Z" transform="translate(-51.711 -26.105)" fill="#e6e6e6"/>
      <rect id="Rectangle_2954" data-name="Rectangle 2954" width="34.451" height="3.725" transform="matrix(0.847, -0.532, 0.532, 0.847, 98.67, 157.349)" fill="#e6e6e6"/>
      <rect id="Rectangle_2955" data-name="Rectangle 2955" width="3.725" height="27.763" transform="translate(109.044 101.531) rotate(-41.49)" fill="#e6e6e6"/>
      <path id="Path_17823" data-name="Path 17823" d="M67.59,140.813l-1.807-3.261,35.3-19.559L63.02,89.15l2.25-2.97,42.621,32.3Z" transform="translate(-5.843 -13.141)" fill="#e6e6e6"/>
      <path id="Path_17824" data-name="Path 17824" d="M202.64,153.539a24.675,24.675,0,1,0-42.524,17.025,19.933,19.933,0,0,1,5.393,13.778v.845h24.419v-.623a19.981,19.981,0,0,1,5.753-13.847,24.564,24.564,0,0,0,6.958-17.177Z" transform="translate(-33.615 -26.268)" fill="#ffd200"/>
      <path id="Path_17825" data-name="Path 17825" d="M176.687,195.685a.859.859,0,0,1-.845-.692l-5.158-31.218a.86.86,0,0,1,1.7-.284l5.158,31.218a.865.865,0,0,1-.692.99Z" transform="translate(-38.963 -36.705)" fill="#fff"/>
      <path id="Path_17826" data-name="Path 17826" d="M197.623,195.679h-.145a.865.865,0,0,1-.692-.99l5.158-31.218a.86.86,0,0,1,1.7.284l-5.158,31.218A.858.858,0,0,1,197.623,195.679Z" transform="translate(-46.993 -36.698)" fill="#fff"/>
      <rect id="Rectangle_2956" data-name="Rectangle 2956" width="27.95" height="22.065" transform="translate(130.372 155.131)" fill="#24285b"/>
      <path id="Path_17827" data-name="Path 17827" d="M189.035,171.381a4.118,4.118,0,0,1-3.136-1.945c-.4-.526-.8-.769-1.163-.741-.831.076-1.772,1.419-2.077,2.077a.859.859,0,1,1-1.53-.782c.145-.284,1.482-2.811,3.462-2.991a2.991,2.991,0,0,1,2.686,1.385c.478.616,1.191,1.343,1.876,1.267.8-.083,1.5-1.177,1.675-1.551a.859.859,0,0,1,1.551.734c-.111.235-1.149,2.326-3.039,2.527Z" transform="translate(-42.15 -38.003)" fill="#fff"/>
      <ellipse id="Ellipse_20114" data-name="Ellipse 20114" cx="5.989" cy="7.664" rx="5.989" ry="7.664" transform="matrix(0.398, -0.917, 0.917, 0.398, 143.575, 116.168)" fill="#fff" opacity="0.21"/>
      <path id="Path_17828" data-name="Path 17828" d="M175.38,236.62h18.77a8.606,8.606,0,0,1-8.606,8.606h-1.558a8.606,8.606,0,0,1-8.606-8.606Z" transform="translate(-40.411 -59.424)" fill="#24285b"/>
      <rect id="Rectangle_2957" data-name="Rectangle 2957" width="32.727" height="32.727" rx="7.7" transform="translate(82.281 85.557)" fill="#0da6c9"/>
      <rect id="Rectangle_2958" data-name="Rectangle 2958" width="32.727" height="32.727" rx="7.7" transform="translate(183.759 91.663)" fill="#0da6c9"/>
      <rect id="Rectangle_2959" data-name="Rectangle 2959" width="32.727" height="32.727" rx="7.7" transform="translate(183.759 91.663)" opacity="0.09"/>
      <rect id="Rectangle_2960" data-name="Rectangle 2960" width="32.727" height="32.727" rx="7.7" transform="translate(77.712 140.613)" fill="#0da6c9"/>
      <rect id="Rectangle_2961" data-name="Rectangle 2961" width="32.727" height="32.727" rx="7.7" transform="translate(77.712 140.613)" fill="#fff" opacity="0.6"/>
      <rect id="Rectangle_2962" data-name="Rectangle 2962" width="24.031" height="24.031" rx="5.65" transform="translate(178.469 149.904)" fill="#0da6c9"/>
      <rect id="Rectangle_2963" data-name="Rectangle 2963" width="32.035" height="32.035" rx="7.53" transform="translate(130.427 58.5)" fill="#0da6c9"/>
      <rect id="Rectangle_2964" data-name="Rectangle 2964" width="32.035" height="32.035" rx="7.53" transform="translate(130.427 58.5)" fill="#fff" opacity="0.46"/>
      <rect id="Rectangle_2965" data-name="Rectangle 2965" width="20.044" height="20.044" rx="4.71" transform="translate(48.003 63.672)" fill="#0da6c9"/>
      <rect id="Rectangle_2966" data-name="Rectangle 2966" width="20.044" height="20.044" rx="4.71" transform="translate(48.003 63.672)" fill="#fff" opacity="0.46"/>
      <rect id="Rectangle_2967" data-name="Rectangle 2967" width="13.515" height="13.515" rx="3.18" transform="translate(54.082 119.281)" fill="#0da6c9"/>
      <rect id="Rectangle_2968" data-name="Rectangle 2968" width="13.515" height="13.515" rx="3.18" transform="translate(54.082 119.281)" opacity="0.09"/>
      <rect id="Rectangle_2969" data-name="Rectangle 2969" width="13.515" height="13.515" rx="3.18" transform="translate(208.234 133.855)" fill="#0da6c9"/>
      <rect id="Rectangle_2970" data-name="Rectangle 2970" width="13.515" height="13.515" rx="3.18" transform="translate(208.234 133.855)" fill="#fff" opacity="0.6"/>
      <rect id="Rectangle_2971" data-name="Rectangle 2971" width="13.515" height="13.515" rx="3.18" transform="translate(204.495 67.764)" fill="#0da6c9"/>
      <rect id="Rectangle_2972" data-name="Rectangle 2972" width="13.515" height="13.515" rx="3.18" transform="translate(204.495 67.764)" fill="#fff" opacity="0.6"/>
      <rect id="Rectangle_2973" data-name="Rectangle 2973" width="23.076" height="23.076" rx="5.43" transform="translate(232.95 91.061)" fill="#0da6c9"/>
      <rect id="Rectangle_2974" data-name="Rectangle 2974" width="15.619" height="15.619" transform="translate(102.048 58.901)" fill="#e6e6e6"/>
      <rect id="Rectangle_2975" data-name="Rectangle 2975" width="11.625" height="8.634" transform="translate(178.774 70.768)" fill="#e6e6e6"/>
    </g>
    <g id="angular-icon-1" transform="translate(840.686 961.015)">
      <path id="Path_283" data-name="Path 283" d="M.1,4.349,10.349.7,20.873,4.284l-1.7,13.56-8.821,4.885-8.683-4.82Z" transform="translate(-0.1 -0.697)" fill="#e23237"/>
      <path id="Path_284" data-name="Path 284" d="M136.433,4.284,125.908.7V22.728l8.821-4.877,1.7-13.568Z" transform="translate(-115.659 -0.697)" fill="#b52e31"/>
      <path id="Path_285" data-name="Path 285" d="M54.1,32.274,47.714,46.483l2.386-.041,1.282-3.205h5.729l1.4,3.246,2.28.041Zm.016,4.552,2.158,4.512H52.218Z" transform="translate(-43.835 -29.702)" fill="#fff"/>
    </g>
    <g id="Group_22236" data-name="Group 22236" transform="translate(786 931.135)">
      <path id="Path_300" data-name="Path 300" d="M14.226,0,11.557,4.623,8.888,0H0L11.557,20.017,23.113,0Z" transform="translate(0 0)" fill="#4dba87"/>
      <path id="Path_301" data-name="Path 301" d="M509.6,0l-2.669,4.623L504.265,0H500l6.934,12.01L513.868,0Z" transform="translate(-495.377 0)" fill="#435466"/>
    </g>
    <g id="Group_22238" data-name="Group 22238" transform="translate(746.966 866.825) rotate(24)">
      <g id="html-5_1_" data-name="html-5 (1)" transform="matrix(0.921, -0.391, 0.391, 0.921, 47.861, 134.307)">
        <path id="Path_295" data-name="Path 295" d="M16.677,0,15.157,17.02,8.328,18.913l-6.81-1.891L0,0Z" transform="translate(0 4.626)" fill="#e44d26"/>
        <path id="Path_296" data-name="Path 296" d="M0,16.074l5.518-1.53L6.817,0H0Z" transform="translate(8.338 6.018)" fill="#f16529"/>
        <path id="Path_297" data-name="Path 297" d="M2.282,2.088H5.235V0H0L.05.56.563,6.313H5.235V4.226H2.472Zm.471,5.269H.656l.292,3.278,4.277,1.187.01,0V9.648l-.009,0L2.9,9.022Z" transform="translate(3.103 8.106)" fill="#ebebeb"/>
        <path id="Path_298" data-name="Path 298" d="M0,0H1.061V1.048h.971V0H3.093V3.174H2.032V2.111H1.061V3.174H0V0ZM4.488,1.053H3.554V0H6.483V1.053H5.549V3.174H4.488V1.053h0ZM6.948,0H8.054l.681,1.115L9.415,0h1.107V3.174H9.465V1.6L8.735,2.73H8.717L7.986,1.6V3.174H6.948Zm4.1,0h1.061V2.125H13.6V3.174H11.049V0Z" transform="translate(1.552 0)"/>
        <path id="Path_299" data-name="Path 299" d="M0,6.313H2.571L2.328,9.021,0,9.649v2.172l4.28-1.186.031-.353.491-5.5.051-.561H0ZM0,2.083v.005H5.043l.042-.469L5.18.56,5.23,0H0V2.083Z" transform="translate(8.331 8.106)" fill="#fff"/>
      </g>
    </g>
    <g id="react_1_" data-name="react (1)" transform="translate(736.07 959.614) rotate(-16)">
      <path id="Path_17759" data-name="Path 17759" d="M.754,11.286c0,1.771,1.729,3.423,4.455,4.355-.544,2.74-.1,4.949,1.395,5.809,1.534.885,3.819.272,5.988-1.624,2.114,1.819,4.251,2.535,5.742,1.672,1.532-.887,2-3.246,1.439-6.071,2.839-.939,4.427-2.348,4.427-4.142,0-1.73-1.732-3.226-4.421-4.151.6-2.943.092-5.1-1.462-5.994-1.5-.864-3.66-.111-5.8,1.756C10.279.915,8.139.311,6.587,1.209c-1.5.866-1.924,3.115-1.378,5.906C2.575,8.034.754,9.564.754,11.286Z" transform="translate(-0.754 -0.785)" fill="#fff"/>
      <path id="Path_17760" data-name="Path 17760" d="M32.362,20.519q-.332-.114-.67-.211.056-.228.1-.457c.507-2.463.176-4.447-.957-5.1-1.086-.626-2.863.027-4.657,1.588q-.265.231-.518.476-.17-.163-.345-.319c-1.88-1.67-3.765-2.373-4.9-1.718-1.085.628-1.407,2.494-.95,4.828q.068.347.154.69c-.267.076-.524.156-.771.242-2.2.769-3.612,1.973-3.612,3.222,0,1.29,1.511,2.585,3.807,3.369q.279.1.563.176-.092.369-.164.743c-.435,2.294-.1,4.115.987,4.739,1.118.645,2.994-.018,4.821-1.615q.217-.189.434-.4.274.265.563.514c1.77,1.523,3.517,2.138,4.6,1.512,1.117-.647,1.48-2.6,1.008-4.983q-.054-.273-.125-.557.2-.058.387-.121c2.387-.791,3.94-2.069,3.94-3.377,0-1.254-1.453-2.467-3.7-3.241Z" transform="translate(-13.908 -13.249)" fill="#53c1de"/>
      <path id="Path_17761" data-name="Path 17761" d="M40.607,35.035c-.114.038-.231.074-.35.109A20.877,20.877,0,0,0,39.2,32.507a20.867,20.867,0,0,0,1.013-2.6c.213.062.42.127.619.2,1.927.663,3.1,1.644,3.1,2.4,0,.8-1.269,1.85-3.33,2.533Zm-.855,1.695a7.532,7.532,0,0,1,.1,2.748,1.838,1.838,0,0,1-.682,1.293c-.656.38-2.06-.114-3.573-1.416q-.26-.224-.524-.477a20.9,20.9,0,0,0,1.745-2.216,20.763,20.763,0,0,0,2.82-.435Q39.7,36.483,39.752,36.729ZM31.1,40.7a1.838,1.838,0,0,1-1.46.055c-.657-.379-.93-1.841-.557-3.8q.066-.348.152-.691a20.916,20.916,0,0,0,2.806.406,21.646,21.646,0,0,0,1.787,2.208q-.194.187-.4.365A7.533,7.533,0,0,1,31.1,40.7Zm-3-5.674a7.535,7.535,0,0,1-2.428-1.29A1.838,1.838,0,0,1,24.9,32.5c0-.758,1.13-1.725,3.016-2.382q.355-.123.717-.225a21.331,21.331,0,0,0,1.015,2.63,21.656,21.656,0,0,0-1.027,2.667q-.259-.074-.514-.161Zm1.007-6.853c-.391-2-.131-3.508.522-3.887.7-.4,2.237.172,3.86,1.613.1.092.208.189.312.288a21.315,21.315,0,0,0-1.774,2.195,21.733,21.733,0,0,0-2.778.432q-.08-.319-.143-.642Zm8.981,2.218q-.305-.527-.633-1.041c.664.084,1.3.2,1.9.332a18.972,18.972,0,0,1-.666,1.793q-.289-.548-.6-1.083Zm-3.663-3.567a19.021,19.021,0,0,1,1.225,1.479q-1.23-.058-2.461,0C33.6,27.772,34.01,27.277,34.426,26.827ZM30.74,30.4q-.306.531-.588,1.077c-.259-.614-.481-1.218-.662-1.8.594-.133,1.228-.242,1.888-.324q-.331.517-.638,1.049Zm.657,5.315a18.938,18.938,0,0,1-1.919-.309c.184-.594.41-1.211.675-1.838q.282.546.59,1.077t.654,1.069Zm3.053,2.524c-.422-.455-.842-.958-1.253-1.5q.6.023,1.218.024.637,0,1.257-.028A18.918,18.918,0,0,1,34.451,38.24Zm4.245-4.7a18.889,18.889,0,0,1,.7,1.832,18.877,18.877,0,0,1-1.942.331q.33-.523.639-1.06t.6-1.1Zm-1.374.659q-.473.822-1,1.612c-.618.044-1.256.067-1.907.067s-1.278-.02-1.885-.06q-.539-.788-1.018-1.614t-.888-1.678q.411-.856.886-1.679h0q.474-.823,1.01-1.607c.619-.047,1.254-.071,1.9-.071s1.28.025,1.9.072q.53.783,1,1.6t.9,1.671q-.417.858-.895,1.685Zm1.835-9.933c.7.4.968,2.024.53,4.15q-.043.208-.094.414a21.308,21.308,0,0,0-2.784-.44,20.9,20.9,0,0,0-1.76-2.2q.234-.226.479-.439C37.066,24.414,38.5,23.886,39.157,24.264Z" transform="translate(-22.67 -21.992)" fill="#fff"/>
      <path id="Path_17762" data-name="Path 17762" d="M109.9,94.665a1.859,1.859,0,1,1-1.859,1.859,1.859,1.859,0,0,1,1.859-1.859" transform="translate(-98.157 -86.014)" fill="#53c1de"/>
    </g>
    <path id="apple-black" d="M11.362,8.877A3.693,3.693,0,0,0,13.6,12.257a9.144,9.144,0,0,1-1.156,2.376c-.7,1.018-1.419,2.032-2.558,2.053-1.119.021-1.478-.663-2.758-.663s-1.678.642-2.737.684c-1.1.042-1.936-1.1-2.638-2.115C.323,12.518-.773,8.731.7,6.174A4.09,4.09,0,0,1,4.156,4.08c1.079-.021,2.1.726,2.758.726s1.9-.9,3.2-.766A3.9,3.9,0,0,1,13.168,5.7a3.779,3.779,0,0,0-1.806,3.179M9.26,2.668A3.68,3.68,0,0,0,10.129,0,3.745,3.745,0,0,0,7.668,1.266a3.5,3.5,0,0,0-.886,2.584A3.1,3.1,0,0,0,9.26,2.668" transform="translate(701.459 928.135)"/>
    <g id="android" transform="translate(857.388 891.006)">
      <path id="Path_17898" data-name="Path 17898" d="M88.563,207.092a.919.919,0,0,1,.919.919v3.94a.918.918,0,0,1-1.837,0v-3.94a.918.918,0,0,1,.918-.918Z" transform="translate(-51.903 -128.241)" fill="#fff"/>
      <path id="Path_17899" data-name="Path 17899" d="M69.292,133.645c0,.035-.006.07-.006.106v5.97a1.147,1.147,0,0,0,1.139,1.159H76.5a1.147,1.147,0,0,0,1.139-1.159v-5.97c0-.036,0-.071,0-.106Z" transform="translate(-34.728 -59.532)" fill="#fff"/>
      <path id="Path_17900" data-name="Path 17900" d="M40.8,81.418a.919.919,0,0,1,.919.919v3.94a.918.918,0,0,1-1.837,0v-3.94a.919.919,0,0,1,.918-.918Zm-7.722-4.206A.919.919,0,0,1,34,78.13v3.94a.918.918,0,0,1-1.837,0V78.13A.919.919,0,0,1,33.083,77.212Zm11.3,0a.919.919,0,0,1,.918.919v3.94a.918.918,0,1,1-1.837,0V78.13A.919.919,0,0,1,44.383,77.212Zm-9.792-.923a3.837,3.837,0,0,1,3.68-3.535h.923a3.837,3.837,0,0,1,3.68,3.535Z" transform="translate(0 -2.567)" fill="#fff"/>
      <path id="Path_17901" data-name="Path 17901" d="M74.743,70.009l.969,1.678m6.676-1.678-.969,1.678" transform="translate(-39.833)" fill="none" stroke="#fff" stroke-linecap="round" stroke-linejoin="round" stroke-width="2"/>
      <path id="Path_17902" data-name="Path 17902" d="M101.093,95.336a.475.475,0,0,1-.95,0v0a.475.475,0,0,1,.95,0Zm3.547,0a.475.475,0,0,1-.95,0v0a.475.475,0,0,1,.95,0Z" transform="translate(-63.594 -23.258)" fill="#fff"/>
    </g>
    <g id="django" transform="translate(834.849 1018.977)">
      <path id="Path_17903" data-name="Path 17903" d="M5.478,0H8.02V11.653a16.817,16.817,0,0,1-3.3.343C1.616,11.993,0,10.606,0,7.942A4.035,4.035,0,0,1,4.372,3.708a4.137,4.137,0,0,1,1.106.13V0Zm.089,5.938a2.56,2.56,0,0,0-.857-.13A1.909,1.909,0,0,0,2.681,7.967a1.844,1.844,0,0,0,2.012,2.077,6,6,0,0,0,.874-.064V5.938Z" fill="#fff"/>
      <path id="Path_17904" data-name="Path 17904" d="M154.826,4.021V9.856a7.786,7.786,0,0,1-.592,3.809,4.051,4.051,0,0,1-2.078,1.864L149.8,14.416a3.661,3.661,0,0,0,2.012-1.686c.363-.719.478-1.552.478-3.744V4.021h2.539ZM152.031,0h2.543V2.583h-2.543Z" transform="translate(-142.648)" fill="#fff"/>
    </g>
  </g>
</svg>
